<?xml version="1.0" encoding="UTF-8" standalone="no"?>
<!-- Generator: Adobe Illustrator 21.1.0, SVG Export Plug-In . SVG Version: 6.00 Build 0)  -->

<svg
   xmlns:osb="http://www.openswatchbook.org/uri/2009/osb"
   xmlns:dc="http://purl.org/dc/elements/1.1/"
   xmlns:cc="http://creativecommons.org/ns#"
   xmlns:rdf="http://www.w3.org/1999/02/22-rdf-syntax-ns#"
   xmlns:svg="http://www.w3.org/2000/svg"
   xmlns="http://www.w3.org/2000/svg"
   xmlns:xlink="http://www.w3.org/1999/xlink"
   xmlns:sodipodi="http://sodipodi.sourceforge.net/DTD/sodipodi-0.dtd"
   xmlns:inkscape="http://www.inkscape.org/namespaces/inkscape"
   version="1.1"
   id="Layer_1"
   x="0px"
   y="0px"
   width="919.17847"
   height="111.271"
   viewBox="0 0 919.17847 111.271"
   enable-background="new 0 0 1182 221.198"
   xml:space="preserve"
   sodipodi:docname="logo1.svg"
   inkscape:version="0.92.2 (5c3e80d, 2017-08-06)"><metadata
     id="metadata1853"><rdf:RDF><cc:Work
         rdf:about=""><dc:format>image/svg+xml</dc:format><dc:type
           rdf:resource="http://purl.org/dc/dcmitype/StillImage" /><dc:title></dc:title></cc:Work></rdf:RDF></metadata><defs
     id="defs1851"><linearGradient
       id="linearGradient1945"
       osb:paint="solid"><stop
         style="stop-color:#ffffff;stop-opacity:1;"
         offset="0"
         id="stop1943" /></linearGradient><linearGradient
       inkscape:collect="always"
       xlink:href="#linearGradient1945"
       id="linearGradient1949"
       gradientUnits="userSpaceOnUse"
       x1="254.821"
       y1="131.5745"
       x2="1173.9995"
       y2="131.5745" /></defs><sodipodi:namedview
     pagecolor="#ffffff"
     bordercolor="#666666"
     borderopacity="1"
     objecttolerance="10"
     gridtolerance="10"
     guidetolerance="10"
     inkscape:pageopacity="0"
     inkscape:pageshadow="2"
     inkscape:window-width="1366"
     inkscape:window-height="705"
     id="namedview1849"
     showgrid="false"
     inkscape:zoom="0.73773266"
     inkscape:cx="440.83554"
     inkscape:cy="76.610994"
     inkscape:window-x="-8"
     inkscape:window-y="-8"
     inkscape:window-maximized="1"
     inkscape:current-layer="Layer_1" /><g
     id="g1358"
     transform="translate(-254.821,-75.939)"
     style="fill-opacity:1;fill:url(#linearGradient1949)"><path
       d="m 281.017,103.239 v 12.611 c 0,1.686 1.367,3.052 3.052,3.052 h 33.418 c 1.686,0 3.052,1.367 3.052,3.052 v 17.247 c 0,1.686 -1.367,3.052 -3.052,3.052 h -33.418 c -1.686,0 -3.052,1.367 -3.052,3.052 v 35.063 c 0,1.686 -1.367,3.052 -3.052,3.052 h -20.092 c -1.686,0 -3.052,-1.367 -3.052,-3.052 V 79.887 c 0,-1.686 1.367,-3.052 3.052,-3.052 h 66.351 c 1.686,0 3.052,1.367 3.052,3.052 v 17.247 c 0,1.686 -1.367,3.052 -3.052,3.052 H 284.07 c -1.687,10e-4 -3.053,1.367 -3.053,3.053 z m 130.67,69.105 c -7.784,7.784 -16.768,11.975 -29.79,11.975 -13.023,0 -22.006,-4.191 -29.79,-11.975 -11.226,-11.226 -10.78,-26.197 -10.78,-42.215 0,-16.018 -0.445,-30.99 10.78,-42.215 7.784,-7.784 16.768,-11.975 29.79,-11.975 13.022,0 22.006,4.191 29.79,11.975 11.226,11.226 10.78,26.197 10.78,42.215 0,16.018 0.446,30.989 -10.78,42.215 z m -19.313,-68.412 c -1.944,-2.546 -5.689,-4.641 -10.477,-4.641 -4.788,0 -8.533,2.095 -10.477,4.641 -2.399,3.143 -3.897,6.736 -3.897,26.197 0,19.461 1.498,22.902 3.897,26.05 1.944,2.541 5.689,4.788 10.477,4.788 4.788,0 8.533,-2.247 10.477,-4.788 2.399,-3.148 3.897,-6.59 3.897,-26.05 0,-19.46 -1.498,-23.054 -3.897,-26.197 z m 103.763,77.877 -13.962,-26.132 c -1.15,-2.152 -4.235,-2.152 -5.385,0 l -13.957,26.132 c -0.531,0.994 -1.566,1.614 -2.692,1.614 h -22.683 c -2.381,0 -3.845,-2.604 -2.608,-4.639 l 29.453,-48.427 c 0.589,-0.968 0.593,-2.183 0.01,-3.155 L 436.894,81.456 c -1.219,-2.035 0.246,-4.622 2.618,-4.622 h 22.544 c 1.141,0 2.187,0.636 2.711,1.65 l 12.004,23.199 c 1.138,2.2 4.284,2.2 5.422,0 l 12.004,-23.199 c 0.524,-1.013 1.57,-1.65 2.711,-1.65 h 22.544 c 2.372,0 3.838,2.587 2.618,4.622 l -27.419,45.745 c -0.583,0.972 -0.579,2.187 0.01,3.156 l 29.457,48.427 c 1.237,2.034 -0.227,4.639 -2.608,4.639 h -22.682 c -1.125,0 -2.16,-0.62 -2.691,-1.614 z m 91.408,-78.57 v 77.131 c 0,1.686 -1.367,3.052 -3.052,3.052 h -20.092 c -1.686,0 -3.052,-1.367 -3.052,-3.052 v -77.131 c 0,-1.686 -1.367,-3.052 -3.052,-3.052 H 538.2 c -1.686,0 -3.052,-1.367 -3.052,-3.052 V 79.887 c 0,-1.686 1.367,-3.052 3.052,-3.052 h 72.49 c 1.686,0 3.052,1.367 3.052,3.052 v 17.247 c 0,1.686 -1.367,3.052 -3.052,3.052 h -20.092 c -1.686,10e-4 -3.053,1.367 -3.053,3.053 z m 98.251,78.442 -17.207,-36.186 c -0.506,-1.064 -1.579,-1.742 -2.757,-1.742 h -3.851 c -1.686,0 -3.052,1.367 -3.052,3.052 v 33.565 c 0,1.686 -1.367,3.052 -3.052,3.052 h -20.092 c -1.686,0 -3.052,-1.367 -3.052,-3.052 V 79.887 c 0,-1.686 1.367,-3.052 3.052,-3.052 h 39.163 c 23.651,0 36.375,16.768 36.375,34.284 0,13.069 -7.277,21.771 -14.842,26.436 -1.37,0.844 -1.934,2.542 -1.193,3.97 l 19.413,37.441 c 1.054,2.032 -0.421,4.458 -2.71,4.458 h -23.438 c -1.179,-0.001 -2.251,-0.679 -2.757,-1.743 z m -12.048,-81.342 h -11.767 c -1.686,0 -3.052,1.367 -3.052,3.052 v 15.451 c 0,1.686 1.367,3.052 3.052,3.052 h 11.767 c 7.187,0 11.378,-5.238 11.378,-10.775 0,-5.542 -4.191,-10.78 -11.378,-10.78 z m 127.224,72.005 c -7.784,7.784 -16.768,11.975 -29.79,11.975 -13.022,0 -22.006,-4.191 -29.79,-11.975 -11.226,-11.226 -10.78,-26.197 -10.78,-42.215 0,-16.018 -0.445,-30.99 10.78,-42.215 7.784,-7.784 16.768,-11.975 29.79,-11.975 13.023,0 22.006,4.191 29.79,11.975 11.226,11.226 10.78,26.197 10.78,42.215 0,16.018 0.446,30.989 -10.78,42.215 z m -19.313,-68.412 c -1.944,-2.546 -5.689,-4.641 -10.477,-4.641 -4.788,0 -8.533,2.095 -10.477,4.641 -2.399,3.143 -3.897,6.736 -3.897,26.197 0,19.461 1.498,22.902 3.897,26.05 1.944,2.541 5.689,4.788 10.477,4.788 4.788,0 8.533,-2.247 10.477,-4.788 2.399,-3.148 3.897,-6.59 3.897,-26.05 0,-19.46 -1.498,-23.054 -3.897,-26.197 z m 99.08,-0.693 v 77.131 c 0,1.686 -1.367,3.052 -3.052,3.052 h -20.092 c -1.686,0 -3.052,-1.367 -3.052,-3.052 v -77.131 c 0,-1.686 -1.367,-3.052 -3.052,-3.052 h -20.097 c -1.686,0 -3.052,-1.367 -3.052,-3.052 V 79.887 c 0,-1.686 1.367,-3.052 3.052,-3.052 h 72.49 c 1.686,0 3.052,1.367 3.052,3.052 v 17.247 c 0,1.686 -1.367,3.052 -3.052,3.052 h -20.092 c -1.686,10e-4 -3.053,1.367 -3.053,3.053 z m 146.564,81.08 c -22.153,0 -40.267,-14.971 -40.267,-38.323 V 79.887 c 0,-1.686 1.367,-3.052 3.052,-3.052 h 20.092 c 1.686,0 3.052,1.367 3.052,3.052 v 65.512 c 0,9.879 5.39,15.568 14.07,15.568 8.685,0 14.374,-5.689 14.374,-15.568 V 79.887 c 0,-1.686 1.367,-3.052 3.052,-3.052 h 20.092 c 1.686,0 3.052,1.367 3.052,3.052 v 66.109 c 0,23.352 -18.411,38.323 -40.569,38.323 z m 119.937,-3.041 -3.604,-11.581 c -0.397,-1.276 -1.578,-2.145 -2.915,-2.145 h -28.333 c -1.317,0 -2.486,0.845 -2.899,2.096 l -3.855,11.68 c -0.413,1.251 -1.581,2.096 -2.899,2.096 h -20.831 c -2.118,0 -3.593,-2.105 -2.869,-4.096 l 36.553,-100.484 c 0.439,-1.206 1.585,-2.009 2.869,-2.009 h 15.934 c 1.283,0 2.43,0.803 2.869,2.009 l 36.553,100.484 c 0.724,1.991 -0.75,4.096 -2.869,4.096 h -20.791 c -1.335,-0.001 -2.516,-0.87 -2.913,-2.146 z m -23.13,-55.16 -5.238,15.552 c -0.666,1.978 0.805,4.027 2.893,4.027 h 10.15 c 2.063,0 3.532,-2.004 2.911,-3.972 l -4.912,-15.552 c -0.89,-2.815 -4.862,-2.853 -5.804,-0.055 z"
       id="path1335"
       inkscape:connector-curvature="0"
       style="fill:url(#linearGradient1949);fill-opacity:1" /><radialGradient
       id="SVGID_1_"
       cx="743.70923"
       cy="167.7516"
       r="20.1628"
       fx="740.13849"
       fy="167.5528"
       gradientTransform="matrix(2.8913,0,0,2.8913,-1202.1084,-333.8083)"
       gradientUnits="userSpaceOnUse"
       style="fill-opacity:1;fill:url(#linearGradient1949)"><stop
         offset="0"
         style="stop-color:#FED09E;fill-opacity:1;fill:url(#linearGradient1949)"
         id="stop1337" /><stop
         offset="0.2425"
         style="stop-color:#F68959;fill-opacity:1;fill:url(#linearGradient1949)"
         id="stop1339" /><stop
         offset="0.3344"
         style="stop-color:#F36F42;fill-opacity:1;fill:url(#linearGradient1949)"
         id="stop1341" /><stop
         offset="0.4239"
         style="stop-color:#F15632;fill-opacity:1;fill:url(#linearGradient1949)"
         id="stop1343" /><stop
         offset="0.4945"
         style="stop-color:#EF4429;fill-opacity:1;fill:url(#linearGradient1949)"
         id="stop1345" /><stop
         offset="0.5985"
         style="stop-color:#E53E26;fill-opacity:1;fill:url(#linearGradient1949)"
         id="stop1347" /><stop
         offset="0.7681"
         style="stop-color:#D22F21;fill-opacity:1;fill:url(#linearGradient1949)"
         id="stop1349" /><stop
         offset="0.9811"
         style="stop-color:#B41418;fill-opacity:1;fill:url(#linearGradient1949)"
         id="stop1351" /><stop
         offset="1"
         style="stop-color:#B11116;fill-opacity:1;fill:url(#linearGradient1949)"
         id="stop1353" /></radialGradient><circle
       cx="940.23901"
       cy="168.44299"
       r="18.767"
       id="circle1356"
       style="fill:url(#linearGradient1949);fill-opacity:1" /></g></svg>