<svg width="178" height="24" viewBox="0 0 178 24" fill="none" xmlns="http://www.w3.org/2000/svg">
<path d="M4.60344 3.74026V11.2208H15.6517V14.6493H4.60344V24H0V0H17.4931V3.74026H4.60344Z" fill="#E54415"/>
<path d="M5.18654 18.8883C3.55999 18.0156 2.30172 16.8 1.38103 15.2727C0.460344 13.7454 0 12 0 10.0987C0 8.19739 0.460344 6.45194 1.38103 4.92467C2.30172 3.3974 3.55999 2.18182 5.18654 1.30909C6.81309 0.436363 8.59309 -5.94498e-08 10.5879 -5.94498e-08C12.6134 -5.94498e-08 14.4241 0.436363 16.0507 1.30909C17.6772 2.18182 18.9355 3.36623 19.8562 4.92467C20.7769 6.45194 21.2372 8.19739 21.2372 10.0987C21.2372 12 20.7769 13.7454 19.8562 15.2727C18.9355 16.8 17.6772 18.0156 16.0507 18.8883C14.4241 19.761 12.6134 20.1974 10.5879 20.1974C8.59309 20.1974 6.7824 19.761 5.18654 18.8883ZM13.8717 15.7091C14.8231 15.148 15.5903 14.3688 16.112 13.4026C16.6645 12.4363 16.91 11.3143 16.91 10.0987C16.91 8.88311 16.6338 7.76103 16.112 6.7948C15.5596 5.82856 14.8231 5.04934 13.8717 4.51947C12.8896 3.95844 11.8155 3.67792 10.5879 3.67792C9.39102 3.67792 8.31688 3.95844 7.3655 4.51947C6.41413 5.08051 5.64689 5.82856 5.09447 6.7948C4.54206 7.76103 4.26585 8.85194 4.26585 10.0987C4.26585 11.3143 4.54206 12.4363 5.09447 13.4026C5.64689 14.3688 6.41413 15.148 7.3655 15.7091C8.31688 16.2701 9.39102 16.5506 10.5879 16.5506C11.8155 16.5506 12.8896 16.2701 13.8717 15.7091Z" transform="translate(25.3188 3.80258)" fill="#E54415"/>
<path d="M14.5469 19.6363L9.7286 12.8104L4.84896 19.6363H-9.36573e-07L7.3655 9.66233L0.368273 0H5.15585L9.7593 6.42077L14.3627 0H19.0582L12.0303 9.56882L19.4572 19.6363H14.5469Z" transform="translate(53.1543 4.36365)" fill="#E54415"/>
<path d="M6.44482 3.42857H0V0H16.5724V3.42857H10.4345V19.6363H6.44482V3.42857Z" transform="translate(81.3271 4.36365)" fill="#E54415"/>
<path d="M12.061 19.6363L8.19413 14.026H7.85654H3.98965V19.6363H0V0H7.85654C10.4652 0 12.5214 0.498701 14.0252 1.74545C15.5289 2.9922 16.2655 4.64415 16.2655 6.85713C16.2655 8.32207 15.9279 9.53765 15.222 10.5974C14.5162 11.6571 13.5341 12.5922 12.2145 13.1532L16.6338 19.6363H12.061ZM10.8641 4.08311C10.1276 3.4909 9.02275 3.11688 7.54964 3.11688H3.98965V10.5974H7.54964C8.99205 10.5974 10.0969 10.1922 10.8641 9.56882C11.6007 8.94544 11.9996 7.97921 11.9996 6.82597C11.9996 5.67272 11.6314 4.70649 10.8641 4.08311Z" transform="translate(108.948 4.36365)" fill="#E54415"/>
<path d="M5.18654 18.8883C3.55999 18.0156 2.30172 16.8 1.38103 15.2727C0.460346 13.7454 1.87314e-06 12 1.87314e-06 10.0987C1.87314e-06 8.19739 0.460346 6.45194 1.38103 4.92467C2.30172 3.3974 3.55999 2.18182 5.18654 1.30909C6.81309 0.436363 8.59309 -5.94498e-08 10.5879 -5.94498e-08C12.6134 -5.94498e-08 14.4241 0.436363 16.0507 1.30909C17.6772 2.18182 18.9355 3.36623 19.8562 4.92467C20.7769 6.45194 21.2372 8.19739 21.2372 10.0987C21.2372 12 20.7769 13.7454 19.8562 15.2727C18.9355 16.8 17.6772 18.0156 16.0507 18.8883C14.4241 19.761 12.6134 20.1974 10.5879 20.1974C8.62378 20.1974 6.81309 19.761 5.18654 18.8883ZM13.8717 15.7091C14.8231 15.148 15.5903 14.3688 16.112 13.4026C16.6645 12.4363 16.91 11.3143 16.91 10.0987C16.91 8.88311 16.6338 7.76103 16.112 6.7948C15.5596 5.82856 14.8231 5.04934 13.8717 4.51947C12.9203 3.95844 11.8155 3.70909 10.6186 3.70909C9.42171 3.70909 8.34757 3.98961 7.3962 4.55064C6.44482 5.11168 5.67757 5.85973 5.12516 6.82596C4.57275 7.7922 4.29655 8.88311 4.29655 10.1299C4.29655 11.3454 4.57275 12.4675 5.12516 13.4337C5.67757 14.4 6.44482 15.1792 7.3962 15.7402C8.34757 16.3013 9.42171 16.5818 10.6186 16.5818C11.8155 16.5506 12.9203 16.2701 13.8717 15.7091Z" transform="translate(133.224 3.80258)" fill="#E54415"/>
<path d="M6.75171 3.42857H0V0H16.8793V3.42857H10.7414V19.6363H6.75171V3.42857Z" transform="translate(161.121 4.36365)" fill="#E54415"/>
</svg>
