<svg xmlns="http://www.w3.org/2000/svg" viewBox="0 0 269 324" enable-background="new 0 0 269 324"><style type="text/css">.st0{fill:#FF3C11;} .st1{fill:none;stroke:#FF3C11;stroke-width:5;stroke-linecap:round;stroke-linejoin:round;stroke-miterlimit:10;}</style><path class="st0" d="M134.5 20c24.01 0 43.553 6.604 59.745 20.189 14.212 11.924 25.891 29.497 34.712 52.233 13.3 34.278 20.043 79.389 20.043 134.079 0 29.006-10.456 56.235-29.603 77.5h-169.794c-19.147-21.265-29.603-48.494-29.603-77.5 0-36.486 1.926-90.1 18.582-134.254 8.546-22.655 20.112-40.148 34.375-51.992 16.414-13.629 36.544-20.254 61.542-20.254m0-20c-126.348 0-134.5 151.665-134.5 226.5 0 38.286 15.767 72.858 41.109 97.5h186.782c25.343-24.642 41.109-59.214 41.109-97.5 0-74.835-12.227-226.5-134.5-226.5zM205.333 267.5c6.617 0 12 5.383 12 12s-5.383 12-12 12-12-5.383-12-12 5.383-12 12-12m-143 0c6.617 0 12 5.383 12 12s-5.383 12-12 12-12-5.383-12-12 5.383-12 12-12m143-5c-9.389 0-17 7.611-17 17s7.611 17 17 17 17-7.611 17-17-7.611-17-17-17zm-143 0c-9.389 0-17 7.611-17 17s7.611 17 17 17 17-7.611 17-17-7.611-17-17-17zM134.5 41.5c27.336 0 51.315 16.121 59.797 39.685-7.884 10.337-30.026 20.315-59.797 20.315-29.771 0-51.913-9.979-59.797-20.315 8.483-23.563 32.461-39.685 59.797-39.685m51.084 76.888c10.815 7.003 19.883 16.187 26.407 26.79 7.53 12.236 11.51 26.186 11.51 40.34 0 45.205-39.925 81.983-89 81.983s-89-36.777-89-81.983c0-14.154 3.98-28.104 11.51-40.34 6.524-10.603 15.592-19.787 26.407-26.79 14.4 6.023 32.295 9.304 51.084 9.304s36.683-3.281 51.084-9.304m-51.084-86.888c-34.015 0-62.596 21.671-70.7 51 8.104 16.677 36.685 29 70.7 29s62.596-12.323 70.7-29c-8.104-29.329-36.685-51-70.7-51zm51.76 75.598c-13.221 6.543-31.529 10.594-51.76 10.594-20.231 0-38.539-4.051-51.76-10.594-28.339 16.182-47.24 45.248-47.24 78.419 0 50.801 44.324 91.983 99 91.983s99-41.182 99-91.983c0-33.171-18.901-62.238-47.24-78.419z"/><path class="st1" d="M201.833 127c-66 39-138 0-138 0m-12.5 17.5s85.043 39 163 0m-171 17.5s93.391 39 179 0m-183 17.5s97.565 39 187 0m-186 17.5s96.522 39 185 0m-179 17.5s90.261 39 173 0m-165 17.5s81.913 39 157 0m-76.5-112v152m-26-152s-50 24-29 133m108.849 2c21-109-29-133-29-133"/></svg>