<?xml version="1.0" encoding="utf-8"?>
<!-- Generator: Adobe Illustrator 21.0.2, SVG Export Plug-In . SVG Version: 6.00 Build 0)  -->
<svg version="1.1" id="radcor" xmlns="http://www.w3.org/2000/svg" xmlns:xlink="http://www.w3.org/1999/xlink" x="0px" y="0px"
	 viewBox="0 0 17 24" style="enable-background:new 0 0 17 24;" xml:space="preserve">
<style type="text/css">
	.st0{fill:#FF3C11;}
</style>
<path class="st0" d="M16,0H1C0.4500122,0,0,0.4500122,0,1v22c0,0.5499878,0.4500122,1,1,1h15c0.5499878,0,1-0.4500122,1-1V1
	C17,0.4500122,16.5499878,0,16,0z M10,23H7v-2h3V23z M15,19c0,0.5499878-0.4500122,1-1,1H3c-0.5499878,0-1-0.4500122-1-1V3
	c0-0.5499878,0.4500122-1,1-1h11c0.5499878,0,1,0.4500122,1,1V19z"/>
</svg>
