<?xml version="1.0" encoding="utf-8"?>
<!-- Generator: Adobe Illustrator 21.0.2, SVG Export Plug-In . SVG Version: 6.00 Build 0)  -->
<svg version="1.1" id="radcor" xmlns="http://www.w3.org/2000/svg" xmlns:xlink="http://www.w3.org/1999/xlink" x="0px" y="0px"
	 viewBox="0 0 23 25" style="enable-background:new 0 0 23 25;" xml:space="preserve">
<style type="text/css">
	.st0{fill:#FF3C11;}
</style>
<g>
	<path class="st0" d="M21,2v21H2V2H21 M21,0H2C0.8954315,0,0,0.8954296,0,2v21c0,1.1045685,0.8954315,2,2,2h19
		c1.1045704,0,2-0.8954315,2-2V2C23,0.8954296,22.1045704,0,21,0L21,0z"/>
</g>
<g>
	<polygon class="st0" points="21,6 2,6 2,8 21,8 21,6 	"/>
</g>
<g>
	<polygon class="st0" points="8,3 6,3 6,5 8,5 8,3 	"/>
</g>
<g>
	<polygon class="st0" points="17,3 10,3 10,4 17,4 17,3 	"/>
</g>
<g>
	<path class="st0" d="M11.5,11c2.4813099,0,4.5,2.0186882,4.5,4.5S13.9813099,20,11.5,20S7,17.9813118,7,15.5S9.0186901,11,11.5,11
		 M11.5,9C7.9101505,9,5,11.9101486,5,15.5S7.9101505,22,11.5,22s6.5-2.9101486,6.5-6.5S15.0898495,9,11.5,9L11.5,9z"/>
</g>
</svg>
