<?xml version="1.0" encoding="utf-8"?>
<!-- Generator: Adobe Illustrator 21.0.2, SVG Export Plug-In . SVG Version: 6.00 Build 0)  -->
<svg version="1.1" id="radcor" xmlns="http://www.w3.org/2000/svg" xmlns:xlink="http://www.w3.org/1999/xlink" x="0px" y="0px"
	 viewBox="0 0 28.4166584 21.9999962" style="enable-background:new 0 0 28.4166584 21.9999962;" xml:space="preserve">
<style type="text/css">
	.st0{fill:#FF3C11;}
</style>
<g>
	<g>
		<path class="st0" d="M24.5833321,1.938179c0.0340881,0,0.061821,0.027729,0.061821,0.061821v13.4166603
			c0,0.0340881-0.0277328,0.061821-0.061821,0.061821h-20.75c-0.0340881,0-0.061821-0.0277328-0.061821-0.061821V2
			c0-0.0340919,0.0277328-0.061821,0.061821-0.061821H24.5833321 M24.5833321,0h-20.75c-1.1045685,0-2,0.8954277-2,2v13.4166603
			c0,1.1045685,0.8954315,2,2,2h20.75c1.1045685,0,2-0.8954315,2-2V2C26.5833321,0.8954277,25.6879005,0,24.5833321,0L24.5833321,0z
			"/>
	</g>
</g>
<g>
	<g>
		<path class="st0" d="M24.9197731,17.6859474c0.4205017,0,0.9921913,0.3389587,1.1541824,0.6843185l1.0974083,2.3397675
			c0.0184441,0.0393295,0.0314102,0.0737381,0.0404129,0.1027298c-0.0135841,0.0008087-0.0286293,0.0012817-0.0452118,0.0012817
			H1.250088c-0.0165787,0-0.0316238-0.000473-0.0452042-0.0012817c0.0090027-0.0289917,0.021965-0.0634003,0.0404129-0.1027298
			l1.0974045-2.3397675c0.1619949-0.3453598,0.7336807-0.6843185,1.1541824-0.6843185H24.9197731 M24.9197731,16.4999962H3.4968836
			c-0.8764114,0-1.8658371,0.5947571-2.22789,1.3666687L0.1715815,20.20644
			c-0.4524536,0.9646683,0.0182648,1.7935562,1.0785065,1.7935562h25.9164772c1.0602493,0,1.5309677-0.8288879,1.0785103-1.7935562
			l-1.0974121-2.3397751C26.785614,17.0947533,25.7961845,16.4999962,24.9197731,16.4999962L24.9197731,16.4999962z"/>
	</g>
</g>
<g>
	<polygon class="st0" points="16.563633,19.25 12.7696915,19.25 11.9166622,21.0833321 17.4166622,21.0833321 16.563633,19.25 	"/>
</g>
</svg>
