<?xml version="1.0" encoding="utf-8"?>
<!-- Generator: Adobe Illustrator 21.0.2, SVG Export Plug-In . SVG Version: 6.00 Build 0)  -->
<svg version="1.1" id="radcor" xmlns="http://www.w3.org/2000/svg" xmlns:xlink="http://www.w3.org/1999/xlink" x="0px" y="0px"
	 viewBox="0 0 23 26" style="enable-background:new 0 0 23 26;" xml:space="preserve">
<style type="text/css">
	.st0{fill:none;stroke:#FF3C11;stroke-width:1.9;stroke-miterlimit:10;}
	.st1{fill:#FF3C11;}
</style>
<path class="st0" d="M20.05,24.875H2.95c-1.049,0-1.9-0.851-1.9-1.9V3.025c0-1.049,0.851-1.9,1.9-1.9h17.1
	c1.049,0,1.9,0.851,1.9,1.9v19.95C21.95,24.024,21.099,24.875,20.05,24.875z"/>
<rect x="8.625" y="1" class="st1" width="1.75" height="24.167"/>
<rect x="11" y="10" class="st1" width="1" height="9"/>
<rect x="7" y="10" class="st1" width="1" height="9"/>
<path class="st1" d="M15.797,10h3.406C19.643,10,20,10.357,20,10.797v1.406C20,12.643,19.643,13,19.203,13h-3.406
	C15.357,13,15,12.643,15,12.203v-1.406C15,10.357,15.357,10,15.797,10z"/>
</svg>
