<svg xmlns="http://www.w3.org/2000/svg" viewBox="0 0 207 24.01"><defs><style>.cls-1{fill:#e64415;}</style></defs><title>Ресурс 1</title><g id="Слой_2" data-name="Слой 2"><g id="Слой_1-2" data-name="Слой 1"><path id="_Составной_контур_" data-name="&lt;Составной контур&gt;" class="cls-1" d="M52.31,5.61a12.05,12.05,0,0,0-10.75,0,9.46,9.46,0,0,0-5.13,8.55,9.51,9.51,0,0,0,5.13,8.57,11.91,11.91,0,0,0,10.75,0,9.5,9.5,0,0,0,5.13-8.57,9.45,9.45,0,0,0-5.13-8.55Zm.07,11.78a5.79,5.79,0,0,1-2.23,2.25,6.4,6.4,0,0,1-3.23.82,6.33,6.33,0,0,1-3.2-.82,5.9,5.9,0,0,1-2.25-2.25,6.4,6.4,0,0,1-.82-3.23A6.31,6.31,0,0,1,41.48,11a5.94,5.94,0,0,1,2.25-2.23,6.34,6.34,0,0,1,3.2-.82,6.51,6.51,0,0,1,3.23.8,5.68,5.68,0,0,1,2.23,2.23,6.51,6.51,0,0,1,.8,3.23A6.51,6.51,0,0,1,52.38,17.39Z"/><polygon id="_Контур_" data-name="&lt;Контур&gt;" class="cls-1" points="83.58 4.37 78.92 4.37 70.06 13.87 70.06 4.37 65.69 4.37 65.69 24.02 70.06 24.02 70.06 18.99 72.73 16.33 79.13 24.02 84.08 24.02 75.56 13.22 83.58 4.37"/><path id="_Контур_2" data-name="&lt;Контур&gt;" class="cls-1" d="M97.38,8.7a6.67,6.67,0,0,1,3.28-.8,6.45,6.45,0,0,1,5,2.26l2.73-2.6q-2.66-3.23-7.85-3.23a11.09,11.09,0,0,0-5.34,1.28,9.68,9.68,0,0,0-3.74,3.51,9.43,9.43,0,0,0-1.36,5,9.52,9.52,0,0,0,1.36,5,9.63,9.63,0,0,0,3.74,3.53A11.08,11.08,0,0,0,100.53,24q5.13,0,7.85-3.23l-2.73-2.63a6.34,6.34,0,0,1-5,2.3,6.67,6.67,0,0,1-3.28-.8,5.75,5.75,0,0,1-2.26-2.23,6.47,6.47,0,0,1-.82-3.26,6.4,6.4,0,0,1,.82-3.23A5.76,5.76,0,0,1,97.38,8.7Z"/><polygon id="_Контур_3" data-name="&lt;Контур&gt;" class="cls-1" points="114.69 8.11 120.93 8.11 120.93 24.02 124.98 24.02 124.98 8.11 131.53 8.11 131.53 4.37 114.69 4.37 114.69 8.11"/><path id="_Составной_контур_2" data-name="&lt;Составной контур&gt;" class="cls-1" d="M154.06,6.39a9.44,9.44,0,0,0-6.09-2h-8.28V24h4.05V18.4H148A9.32,9.32,0,0,0,154,16.63a6.31,6.31,0,0,0,2.25-5.13A6.29,6.29,0,0,0,154.06,6.39Zm-3.11,7.77a5.15,5.15,0,0,1-3.28.82h-3.93V8.11h3.93a5.2,5.2,0,0,1,3.28.92,3,3,0,0,1,1.12,2.56A3.09,3.09,0,0,1,150.94,14.15Z"/><path id="_Составной_контур_3" data-name="&lt;Составной контур&gt;" class="cls-1" d="M179.38,5.61a12.05,12.05,0,0,0-10.75,0,9.46,9.46,0,0,0-5.13,8.55,9.51,9.51,0,0,0,5.13,8.57,11.91,11.91,0,0,0,10.75,0,9.51,9.51,0,0,0,5.13-8.57,9.46,9.46,0,0,0-5.13-8.55Zm.07,11.78a5.79,5.79,0,0,1-2.23,2.25,6.4,6.4,0,0,1-3.23.82,6.33,6.33,0,0,1-3.2-.82,5.9,5.9,0,0,1-2.25-2.25,6.4,6.4,0,0,1-.82-3.23,6.31,6.31,0,0,1,.82-3.21,5.94,5.94,0,0,1,2.25-2.23,6.34,6.34,0,0,1,3.2-.82,6.51,6.51,0,0,1,3.23.8,5.68,5.68,0,0,1,2.23,2.23,6.51,6.51,0,0,1,.8,3.23A6.51,6.51,0,0,1,179.44,17.39Z"/><polygon id="_Контур_4" data-name="&lt;Контур&gt;" class="cls-1" points="190.78 4.37 190.78 8.11 196.71 8.11 196.71 24.02 201.39 24.02 201.39 8.11 207 8.11 207 4.37 190.78 4.37"/><path id="_Составной_контур_4" data-name="&lt;Составной контур&gt;" class="cls-1" d="M23.48,3.57A11.11,11.11,0,0,0,18.15,2.3a9.5,9.5,0,0,0-1.7.12V0H12.4V2.43a13.6,13.6,0,0,0-1.85-.13A11.44,11.44,0,0,0,5.14,3.57,9.46,9.46,0,0,0,0,12.12a9.5,9.5,0,0,0,5.12,8.57A11.39,11.39,0,0,0,10.55,22a13.42,13.42,0,0,0,1.85-.13V24h4.05V21.85a9.39,9.39,0,0,0,1.7.12,11.12,11.12,0,0,0,5.36-1.28,9.5,9.5,0,0,0,5.1-8.57,9.46,9.46,0,0,0-5.13-8.55ZM10.55,18.41A6.47,6.47,0,0,1,7.3,17.6a5.81,5.81,0,0,1-2.24-2.25,6.51,6.51,0,0,1-.8-3.23,6.51,6.51,0,0,1,.8-3.23A5.67,5.67,0,0,1,7.29,6.66a6.64,6.64,0,0,1,3.26-.8,7.22,7.22,0,0,1,1.85.24V18.17A7.22,7.22,0,0,1,10.55,18.41Zm13-3.06a5.78,5.78,0,0,1-2.23,2.25,6.16,6.16,0,0,1-3.16.82,5.09,5.09,0,0,1-1.7-.23V6.09a5.08,5.08,0,0,1,1.7-.23,6.39,6.39,0,0,1,3.2.8,5.64,5.64,0,0,1,2.21,2.23,6.5,6.5,0,0,1,.79,3.23A6.51,6.51,0,0,1,23.55,15.35Z"/></g></g></svg>