<?xml version="1.0" encoding="utf-8"?>
<!-- Generator: Adobe Illustrator 21.1.0, SVG Export Plug-In . SVG Version: 6.00 Build 0)  -->
<svg version="1.1" id="Layer_1" xmlns="http://www.w3.org/2000/svg" xmlns:xlink="http://www.w3.org/1999/xlink" x="0px" y="0px"
	 width="1182px" height="221.198px" viewBox="0 0 1182 221.198" enable-background="new 0 0 1182 221.198" xml:space="preserve">
<g>
	<path fill="#EF4123" d="M281.017,103.239v12.611c0,1.686,1.367,3.052,3.052,3.052h33.418c1.686,0,3.052,1.367,3.052,3.052v17.247
		c0,1.686-1.367,3.052-3.052,3.052h-33.418c-1.686,0-3.052,1.367-3.052,3.052v35.063c0,1.686-1.367,3.052-3.052,3.052h-20.092
		c-1.686,0-3.052-1.367-3.052-3.052V79.887c0-1.686,1.367-3.052,3.052-3.052h66.351c1.686,0,3.052,1.367,3.052,3.052v17.247
		c0,1.686-1.367,3.052-3.052,3.052h-40.154C282.383,100.187,281.017,101.553,281.017,103.239z M411.687,172.344
		c-7.784,7.784-16.768,11.975-29.79,11.975c-13.023,0-22.006-4.191-29.79-11.975c-11.226-11.226-10.78-26.197-10.78-42.215
		s-0.445-30.99,10.78-42.215c7.784-7.784,16.768-11.975,29.79-11.975c13.022,0,22.006,4.191,29.79,11.975
		c11.226,11.226,10.78,26.197,10.78,42.215S422.913,161.118,411.687,172.344z M392.374,103.932
		c-1.944-2.546-5.689-4.641-10.477-4.641c-4.788,0-8.533,2.095-10.477,4.641c-2.399,3.143-3.897,6.736-3.897,26.197
		s1.498,22.902,3.897,26.05c1.944,2.541,5.689,4.788,10.477,4.788c4.788,0,8.533-2.247,10.477-4.788
		c2.399-3.148,3.897-6.59,3.897-26.05S394.773,107.075,392.374,103.932z M496.137,181.809l-13.962-26.132
		c-1.15-2.152-4.235-2.152-5.385,0l-13.957,26.132c-0.531,0.994-1.566,1.614-2.692,1.614h-22.683c-2.381,0-3.845-2.604-2.608-4.639
		l29.453-48.427c0.589-0.968,0.593-2.183,0.01-3.155l-27.419-45.746c-1.219-2.035,0.246-4.622,2.618-4.622h22.544
		c1.141,0,2.187,0.636,2.711,1.65l12.004,23.199c1.138,2.2,4.284,2.2,5.422,0l12.004-23.199c0.524-1.013,1.57-1.65,2.711-1.65
		h22.544c2.372,0,3.838,2.587,2.618,4.622l-27.419,45.745c-0.583,0.972-0.579,2.187,0.01,3.156l29.457,48.427
		c1.237,2.034-0.227,4.639-2.608,4.639h-22.682C497.703,183.423,496.668,182.803,496.137,181.809z M587.545,103.239v77.131
		c0,1.686-1.367,3.052-3.052,3.052h-20.092c-1.686,0-3.052-1.367-3.052-3.052v-77.131c0-1.686-1.367-3.052-3.052-3.052h-20.097
		c-1.686,0-3.052-1.367-3.052-3.052V79.887c0-1.686,1.367-3.052,3.052-3.052h72.49c1.686,0,3.052,1.367,3.052,3.052v17.247
		c0,1.686-1.367,3.052-3.052,3.052h-20.092C588.912,100.187,587.545,101.553,587.545,103.239z M685.796,181.681l-17.207-36.186
		c-0.506-1.064-1.579-1.742-2.757-1.742h-3.851c-1.686,0-3.052,1.367-3.052,3.052v33.565c0,1.686-1.367,3.052-3.052,3.052h-20.092
		c-1.686,0-3.052-1.367-3.052-3.052V79.887c0-1.686,1.367-3.052,3.052-3.052h39.163c23.651,0,36.375,16.768,36.375,34.284
		c0,13.069-7.277,21.771-14.842,26.436c-1.37,0.844-1.934,2.542-1.193,3.97l19.413,37.441c1.054,2.032-0.421,4.458-2.71,4.458
		h-23.438C687.374,183.423,686.302,182.745,685.796,181.681z M673.748,100.339h-11.767c-1.686,0-3.052,1.367-3.052,3.052v15.451
		c0,1.686,1.367,3.052,3.052,3.052h11.767c7.187,0,11.378-5.238,11.378-10.775C685.126,105.577,680.935,100.339,673.748,100.339z
		 M800.972,172.344c-7.784,7.784-16.768,11.975-29.79,11.975c-13.022,0-22.006-4.191-29.79-11.975
		c-11.226-11.226-10.78-26.197-10.78-42.215s-0.445-30.99,10.78-42.215c7.784-7.784,16.768-11.975,29.79-11.975
		c13.023,0,22.006,4.191,29.79,11.975c11.226,11.226,10.78,26.197,10.78,42.215S812.198,161.118,800.972,172.344z M781.659,103.932
		c-1.944-2.546-5.689-4.641-10.477-4.641s-8.533,2.095-10.477,4.641c-2.399,3.143-3.897,6.736-3.897,26.197
		s1.498,22.902,3.897,26.05c1.944,2.541,5.689,4.788,10.477,4.788s8.533-2.247,10.477-4.788c2.399-3.148,3.897-6.59,3.897-26.05
		S784.058,107.075,781.659,103.932z M880.739,103.239v77.131c0,1.686-1.367,3.052-3.052,3.052h-20.092
		c-1.686,0-3.052-1.367-3.052-3.052v-77.131c0-1.686-1.367-3.052-3.052-3.052h-20.097c-1.686,0-3.052-1.367-3.052-3.052V79.887
		c0-1.686,1.367-3.052,3.052-3.052h72.49c1.686,0,3.052,1.367,3.052,3.052v17.247c0,1.686-1.367,3.052-3.052,3.052h-20.092
		C882.106,100.187,880.739,101.553,880.739,103.239z M1027.303,184.319c-22.153,0-40.267-14.971-40.267-38.323V79.887
		c0-1.686,1.367-3.052,3.052-3.052h20.092c1.686,0,3.052,1.367,3.052,3.052v65.512c0,9.879,5.39,15.568,14.07,15.568
		c8.685,0,14.374-5.689,14.374-15.568V79.887c0-1.686,1.367-3.052,3.052-3.052h20.092c1.686,0,3.052,1.367,3.052,3.052v66.109
		C1067.874,169.348,1049.461,184.319,1027.303,184.319z M1147.24,181.278l-3.604-11.581c-0.397-1.276-1.578-2.145-2.915-2.145
		h-28.333c-1.317,0-2.486,0.845-2.899,2.096l-3.855,11.68c-0.413,1.251-1.581,2.096-2.899,2.096h-20.831
		c-2.118,0-3.593-2.105-2.869-4.096l36.553-100.484c0.439-1.206,1.585-2.009,2.869-2.009h15.934c1.283,0,2.43,0.803,2.869,2.009
		l36.553,100.484c0.724,1.991-0.75,4.096-2.869,4.096h-20.791C1148.818,183.423,1147.637,182.554,1147.24,181.278z M1124.11,126.118
		l-5.238,15.552c-0.666,1.978,0.805,4.027,2.893,4.027h10.15c2.063,0,3.532-2.004,2.911-3.972l-4.912-15.552
		C1129.024,123.358,1125.052,123.32,1124.11,126.118z"/>
	
		<radialGradient id="SVGID_1_" cx="743.7092" cy="167.7516" r="20.1628" fx="740.1385" fy="167.5528" gradientTransform="matrix(2.8913 0 0 2.8913 -1202.1084 -333.8083)" gradientUnits="userSpaceOnUse">
		<stop  offset="0" style="stop-color:#FED09E"/>
		<stop  offset="0.2425" style="stop-color:#F68959"/>
		<stop  offset="0.3344" style="stop-color:#F36F42"/>
		<stop  offset="0.4239" style="stop-color:#F15632"/>
		<stop  offset="0.4945" style="stop-color:#EF4429"/>
		<stop  offset="0.5985" style="stop-color:#E53E26"/>
		<stop  offset="0.7681" style="stop-color:#D22F21"/>
		<stop  offset="0.9811" style="stop-color:#B41418"/>
		<stop  offset="1" style="stop-color:#B11116"/>
	</radialGradient>
	<circle fill="url(#SVGID_1_)" cx="940.239" cy="168.443" r="18.767"/>
</g>
<g>
	<g>
		<defs>
			<path id="SVGID_2_" d="M10,127.338c0,45.466,36.968,82.318,82.556,82.318c45.592,0,82.561-36.852,82.561-82.318
				c0-45.469-36.97-82.332-82.561-82.332C46.968,45.006,10,81.869,10,127.338"/>
		</defs>
		<clipPath id="SVGID_3_">
			<use xlink:href="#SVGID_2_"  overflow="visible"/>
		</clipPath>
		
			<radialGradient id="SVGID_4_" cx="1816.9683" cy="-2525.7878" r="1.7874" gradientTransform="matrix(55.4158 0 0 -55.2607 -100596.1953 -139531.8438)" gradientUnits="userSpaceOnUse">
			<stop  offset="0" style="stop-color:#FED09E"/>
			<stop  offset="0.0807" style="stop-color:#FBB784"/>
			<stop  offset="0.2808" style="stop-color:#F47E4F"/>
			<stop  offset="0.4237" style="stop-color:#F15632"/>
			<stop  offset="0.4945" style="stop-color:#EF4429"/>
			<stop  offset="0.5985" style="stop-color:#E53E26"/>
			<stop  offset="0.7681" style="stop-color:#D22F21"/>
			<stop  offset="0.9811" style="stop-color:#B41418"/>
			<stop  offset="1" style="stop-color:#B11116"/>
		</radialGradient>
		<rect x="10" y="45.006" clip-path="url(#SVGID_3_)" fill="url(#SVGID_4_)" width="165.117" height="164.65"/>
	</g>
	<g>
		<defs>
			<path id="SVGID_5_" d="M75.388,146.915l-0.154-0.105C69.606,153.645,61.063,158,51.488,158
				c-16.971,0-30.735-13.727-30.735-30.663l0.03-0.036L10,127.338c0,45.466,36.968,82.318,82.556,82.318
				c14.912,0,28.891-3.953,40.979-10.854c0.094-0.046,0.205-0.082,0.301-0.143c0.842-0.494,1.65-0.982,2.466-1.491v-0.008
				c11.615-7.273,21.287-17.298,28.07-29.207l0.024,0.008c6.574-11.956,19.29-20.036,33.94-20.036c1.848,0,3.647,0.127,5.423,0.397
				c-3.064-3.867-6.465-7.438-10.164-10.697h0.018c-0.629-0.521-1.267-1.049-1.888-1.58c-0.011-0.01-0.019-0.017-0.03-0.044
				c-0.432-0.35-0.883-0.703-1.329-1.047c-0.203-0.15-0.395-0.332-0.593-0.492v0.01c-4.558-3.535-9.451-6.597-14.678-9.153
				c-0.04-0.018-0.084-0.029-0.118-0.048c-0.102-0.044-0.205-0.085-0.285-0.149c-0.119-0.048-0.235-0.104-0.346-0.144
				c-10.72-5.07-22.699-7.946-35.356-7.946C113.384,117.033,90.512,128.676,75.388,146.915"/>
		</defs>
		<clipPath id="SVGID_6_">
			<use xlink:href="#SVGID_5_"  overflow="visible"/>
		</clipPath>
		
			<radialGradient id="SVGID_7_" cx="1810.1702" cy="-2536.3652" r="1.7875" gradientTransform="matrix(45.9574 0 0 -45.8286 -83098.0313 -116028.5781)" gradientUnits="userSpaceOnUse">
			<stop  offset="0" style="stop-color:#FED09E"/>
			<stop  offset="0.0807" style="stop-color:#FBB784"/>
			<stop  offset="0.2808" style="stop-color:#F47E4F"/>
			<stop  offset="0.4237" style="stop-color:#F15632"/>
			<stop  offset="0.4945" style="stop-color:#EF4429"/>
			<stop  offset="0.5985" style="stop-color:#E53E26"/>
			<stop  offset="0.7681" style="stop-color:#D22F21"/>
			<stop  offset="0.9811" style="stop-color:#B41418"/>
			<stop  offset="1" style="stop-color:#B11116"/>
		</radialGradient>
		<rect x="10" y="117.033" clip-path="url(#SVGID_6_)" fill="url(#SVGID_7_)" width="193.759" height="92.622"/>
	</g>
	<g>
		<defs>
			<path id="SVGID_8_" d="M75.277,146.813c-0.026,0.036-0.044-0.004-0.044-0.004C69.584,153.645,60.875,158,51.309,158
				c-16.99,0-30.742-13.727-30.742-30.663l0.036-0.036h-0.45v0.036c0,31.254,25.403,56.597,56.739,56.597
				c20.502,0,38.886-10.579,48.855-26.834c9.075-14.75,25.385-24.61,44.028-24.61c8.08,0,15.711,1.841,22.524,5.163
				c0.238-0.028,0.466-0.028,0.686-0.028h0.444c-5.56-4.874-11.778-9.021-18.524-12.306c-0.03-0.018-0.066-0.029-0.116-0.048
				c-0.097-0.044-0.19-0.085-0.302-0.149c-0.095-0.048-0.213-0.104-0.327-0.144c-10.703-5.07-22.696-7.946-35.345-7.946
				C113.264,117.033,90.427,128.635,75.277,146.813"/>
		</defs>
		<clipPath id="SVGID_9_">
			<use xlink:href="#SVGID_8_"  overflow="visible"/>
		</clipPath>
		
			<radialGradient id="SVGID_10_" cx="1796.2144" cy="-2554.3721" r="1.7873" gradientTransform="matrix(34.0217 0 0 -33.9265 -61016.4727 -86535.2969)" gradientUnits="userSpaceOnUse">
			<stop  offset="0" style="stop-color:#FED09E"/>
			<stop  offset="0.0807" style="stop-color:#FBB784"/>
			<stop  offset="0.2808" style="stop-color:#F47E4F"/>
			<stop  offset="0.4237" style="stop-color:#F15632"/>
			<stop  offset="0.4945" style="stop-color:#EF4429"/>
			<stop  offset="0.5985" style="stop-color:#E53E26"/>
			<stop  offset="0.7681" style="stop-color:#D22F21"/>
			<stop  offset="0.9811" style="stop-color:#B41418"/>
			<stop  offset="1" style="stop-color:#B11116"/>
		</radialGradient>
		<rect x="20.153" y="117.033" clip-path="url(#SVGID_9_)" fill="url(#SVGID_10_)" width="173.276" height="66.901"/>
	</g>
	<g>
		<defs>
			<path id="SVGID_11_" d="M94.963,45.826c5.064,10.673,7.917,22.612,7.917,35.216c0,13.973-3.511,27.147-9.685,38.662
				c-0.026,0.036-0.026,0.074-0.06,0.104c-0.038,0.111-0.082,0.192-0.151,0.308h0.021c-0.289,0.633-0.448,1.328-0.448,2.076
				c0,2.839,2.307,5.145,5.164,5.145c0.742,0,1.443-0.163,2.099-0.439v0.025c0.092-0.067,0.199-0.112,0.289-0.156
				c0.034-0.041,0.066-0.058,0.11-0.072c11.557-6.145,24.75-9.662,38.771-9.662c12.644,0.032,24.601,2.844,35.316,7.916
				c3.812-7.831,5.974-16.615,5.974-25.909c0-32.684-26.57-59.165-59.34-59.176C111.63,39.876,102.808,42.022,94.963,45.826"/>
		</defs>
		<clipPath id="SVGID_12_">
			<use xlink:href="#SVGID_11_"  overflow="visible"/>
		</clipPath>
		
			<radialGradient id="SVGID_13_" cx="1814.0228" cy="-2529.9795" r="1.7883" gradientTransform="matrix(50.5282 0 0 -50.3868 -91538.4844 -127437.7656)" gradientUnits="userSpaceOnUse">
			<stop  offset="0" style="stop-color:#FED09E"/>
			<stop  offset="0.0807" style="stop-color:#FBB784"/>
			<stop  offset="0.2808" style="stop-color:#F47E4F"/>
			<stop  offset="0.4237" style="stop-color:#F15632"/>
			<stop  offset="0.4945" style="stop-color:#EF4429"/>
			<stop  offset="0.5985" style="stop-color:#E53E26"/>
			<stop  offset="0.7681" style="stop-color:#D22F21"/>
			<stop  offset="0.9811" style="stop-color:#B41418"/>
			<stop  offset="1" style="stop-color:#B11116"/>
		</radialGradient>
		<rect x="92.556" y="39.865" clip-path="url(#SVGID_12_)" fill="url(#SVGID_13_)" width="87.723" height="87.473"/>
	</g>
	<g>
		<defs>
			<path id="SVGID_14_" d="M96.653,45.042c-0.563,0.251-1.119,0.525-1.69,0.784c5.064,10.673,7.917,22.612,7.917,35.216
				c0,13.973-3.511,27.147-9.685,38.662c-0.026,0.036-0.026,0.074-0.06,0.104c-0.038,0.111-0.082,0.192-0.151,0.308h0.021
				c-0.289,0.633-0.448,1.328-0.448,2.076c0,1.238,0.448,2.383,1.185,3.284l25.44-40.455c2.733-4.087,4.328-8.999,4.328-14.272
				c0-14.211-11.542-25.726-25.789-25.744C97.369,45.006,97.002,45.029,96.653,45.042"/>
		</defs>
		<clipPath id="SVGID_15_">
			<use xlink:href="#SVGID_14_"  overflow="visible"/>
		</clipPath>
		
			<linearGradient id="SVGID_16_" gradientUnits="userSpaceOnUse" x1="1665.8156" y1="-2814.7397" x2="1667.8059" y2="-2814.7397" gradientTransform="matrix(10.0156 0 0 -10.0156 -16580.5957 -28106.0664)">
			<stop  offset="0" style="stop-color:#FFFFFF"/>
			<stop  offset="0.0429" style="stop-color:#FFFFFF"/>
			<stop  offset="1" style="stop-color:#D1D3D4"/>
		</linearGradient>
		<rect x="92.556" y="45.006" clip-path="url(#SVGID_15_)" fill="url(#SVGID_16_)" width="30.953" height="80.47"/>
	</g>
	<g>
		<defs>
			<path id="SVGID_17_" d="M135.01,100.796l-40.583,25.36c0.892,0.742,2.045,1.182,3.293,1.182c0.742,0,1.443-0.163,2.099-0.439
				v0.025c0.092-0.067,0.199-0.112,0.289-0.156c0.034-0.041,0.066-0.058,0.11-0.072c11.557-6.145,24.75-9.662,38.771-9.662
				c12.644,0.032,24.601,2.844,35.316,7.916c0.386,0.173,0.483,0.236,0.788,0.369v-2.074c0-0.346,0.023-0.696,0.023-1.053
				c0-14.192-11.535-25.716-25.803-25.716C144.011,96.477,139.103,98.055,135.01,100.796"/>
		</defs>
		<clipPath id="SVGID_18_">
			<use xlink:href="#SVGID_17_"  overflow="visible"/>
		</clipPath>
		
			<linearGradient id="SVGID_19_" gradientUnits="userSpaceOnUse" x1="1785.8127" y1="-2598.8904" x2="1787.8038" y2="-2598.8904" gradientTransform="matrix(28.6197 0 0 -28.6197 -50991.2891 -74267.5547)">
			<stop  offset="0" style="stop-color:#D1D3D4"/>
			<stop  offset="1" style="stop-color:#A7A9AC"/>
		</linearGradient>
		<rect x="94.427" y="96.477" clip-path="url(#SVGID_18_)" fill="url(#SVGID_19_)" width="80.69" height="30.861"/>
	</g>
	<g>
		<defs>
			<path id="SVGID_20_" d="M93.194,119.704c-0.026,0.036-0.026,0.074-0.06,0.104c-0.038,0.111-0.082,0.192-0.151,0.308h0.021
				c-0.289,0.633-0.448,1.328-0.448,2.076c0,2.839,2.307,5.145,5.164,5.145c0.742,0,1.443-0.163,2.099-0.439v0.025
				c0.092-0.067,0.199-0.112,0.289-0.156c0.034-0.041,0.066-0.058,0.11-0.072c2.341-1.259,4.801-2.387,7.257-3.408
				c-1.419-5.272-5.573-9.405-10.832-10.847C95.6,114.941,94.465,117.364,93.194,119.704"/>
		</defs>
		<clipPath id="SVGID_21_">
			<use xlink:href="#SVGID_20_"  overflow="visible"/>
		</clipPath>
		
			<linearGradient id="SVGID_22_" gradientUnits="userSpaceOnUse" x1="1974.3937" y1="-3607.6079" x2="1976.3842" y2="-3607.6079" gradientTransform="matrix(2.7585 1.9474 1.9474 -2.7585 1673.9918 -13680.2422)">
			<stop  offset="0" style="stop-color:#785F63"/>
			<stop  offset="0.9978" style="stop-color:#2E1705"/>
			<stop  offset="1" style="stop-color:#2E1705"/>
		</linearGradient>
		<polygon clip-path="url(#SVGID_21_)" fill="url(#SVGID_22_)" points="97.519,105.412 114.495,117.396 102.513,134.367 
			85.538,122.383 		"/>
	</g>
	<g>
		<path d="M110.887,80.263c4.188-6.186,3.553-14.644-1.953-20.132c-0.184-0.195-0.376-0.353-0.566-0.524
			C109.987,66.387,110.819,73.323,110.887,80.263"/>
		<path d="M139.748,109.038c6.197-4.166,14.696-3.527,20.186,1.954c0.197,0.177,0.372,0.368,0.53,0.571
			C153.673,109.934,146.713,109.099,139.748,109.038"/>
		<path fill="#785F63" d="M121.808,39.902c7.075,0,13.217,3.991,16.3,9.825c0.577-3.203,0.882-6.495,0.882-9.863
			c0-10.357-2.796-20.092-7.685-28.445L121.808,39.902z"/>
		<path fill="#2F1017" d="M180.277,81.043c-3.386,0-6.676,0.325-9.877,0.864c5.856,3.093,9.859,9.224,9.859,16.28l28.567-9.476
			C200.431,83.839,190.684,81.043,180.277,81.043"/>
	</g>
	<g>
		<defs>
			<path id="SVGID_23_" d="M170.4,81.909c3.267-0.577,6.427-0.866,9.88-0.866c10.39,0,20.139,2.8,28.502,7.673l0.266-0.095
				c-8.781-10.13-21.695-16.832-35.934-17.753C171.487,74.291,170.853,78.005,170.4,81.909"/>
		</defs>
		<clipPath id="SVGID_24_">
			<use xlink:href="#SVGID_23_"  overflow="visible"/>
		</clipPath>
		
			<linearGradient id="SVGID_25_" gradientUnits="userSpaceOnUse" x1="1756.7284" y1="-2653.4775" x2="1758.719" y2="-2653.4775" gradientTransform="matrix(19.415 0 0 -19.415 -33936.4805 -51437.4766)">
			<stop  offset="0" style="stop-color:#785F63"/>
			<stop  offset="0.9978" style="stop-color:#2E1705"/>
			<stop  offset="1" style="stop-color:#2E1705"/>
		</linearGradient>
		<rect x="170.4" y="70.867" clip-path="url(#SVGID_24_)" fill="url(#SVGID_25_)" width="38.648" height="17.849"/>
	</g>
	<g>
		<defs>
			<path id="SVGID_26_" d="M131.303,11.441c4.878,8.353,7.687,18.082,7.687,28.423c0,3.442-0.287,6.614-0.882,9.863
				c3.921-0.454,7.655-1.101,11.089-2.71c-0.931-14.212-7.645-27.093-17.813-35.819L131.303,11.441z"/>
		</defs>
		<clipPath id="SVGID_27_">
			<use xlink:href="#SVGID_26_"  overflow="visible"/>
		</clipPath>
		
			<linearGradient id="SVGID_28_" gradientUnits="userSpaceOnUse" x1="2025.2996" y1="-2579.1709" x2="2027.2899" y2="-2579.1709" gradientTransform="matrix(0 18.7975 18.7975 0 48622.2148 -38059.1484)">
			<stop  offset="0" style="stop-color:#785F63"/>
			<stop  offset="0.9978" style="stop-color:#2E1705"/>
			<stop  offset="1" style="stop-color:#2E1705"/>
		</linearGradient>
		<rect x="131.303" y="11.199" clip-path="url(#SVGID_27_)" fill="url(#SVGID_28_)" width="17.894" height="38.529"/>
	</g>
	<g>
		<defs>
			<path id="SVGID_29_" d="M100.62,126.53c8.452-3.933,17.875-6.139,27.816-6.139c9.03,0,17.632,1.801,25.486,5.096
				c-14.485,5.469-25.562,17.853-29.203,33.104c4.264-4.851,9.497-8.798,15.425-11.546c6.67-3.239,14.122-5.066,22.013-5.066
				c3.18,0,6.27,0.332,9.279,0.874c-4.795,7.616-7.623,16.568-7.713,26.201c0.229-0.368,0.436-0.726,0.649-1.102l0.024,0.008
				c6.574-11.956,19.29-20.036,33.94-20.036c1.848,0,3.647,0.127,5.423,0.397c-3.064-3.867-6.465-7.438-10.164-10.697h0.018
				c-0.629-0.521-1.267-1.049-1.888-1.58c-0.011-0.01-0.019-0.017-0.03-0.044c-0.432-0.35-0.883-0.703-1.329-1.047
				c-0.203-0.15-0.395-0.332-0.593-0.492c-4.558-3.525-9.451-6.587-14.678-9.143c-0.04-0.018-0.084-0.029-0.118-0.048
				c-0.102-0.044-0.205-0.085-0.285-0.149c-0.119-0.048-0.235-0.104-0.346-0.144c-2.146-1.015-4.334-1.949-6.581-2.774
				c-8.957-3.319-18.653-5.172-28.775-5.172C125.135,117.033,112.089,120.492,100.62,126.53"/>
		</defs>
		<clipPath id="SVGID_30_">
			<use xlink:href="#SVGID_29_"  overflow="visible"/>
		</clipPath>
		
			<linearGradient id="SVGID_31_" gradientUnits="userSpaceOnUse" x1="1815.8051" y1="-2544.2654" x2="1817.7954" y2="-2544.2654" gradientTransform="matrix(53.9808 0 0 -53.9808 -97917.9922 -137198.4375)">
			<stop  offset="0" style="stop-color:#785F63"/>
			<stop  offset="0.9978" style="stop-color:#2E1705"/>
			<stop  offset="1" style="stop-color:#2E1705"/>
		</linearGradient>
		<rect x="100.62" y="117.033" clip-path="url(#SVGID_30_)" fill="url(#SVGID_31_)" width="103.139" height="52.022"/>
	</g>
	<g>
		<defs>
			<path id="SVGID_32_" d="M125.681,157.503c4.043-4.322,8.892-7.833,14.321-10.367c6.687-3.287,14.195-5.156,22.155-5.156
				c3.18,0,6.27,0.332,9.279,0.874c-4.795,7.616-7.623,16.568-7.713,26.201c0.229-0.368,0.436-0.726,0.649-1.102l0.024,0.008
				c6.574-11.956,19.29-20.036,33.94-20.036c1.848,0,3.647,0.127,5.423,0.397c-2.655-3.338-5.588-6.471-8.709-9.332
				c-7.427-4.142-15.99-6.5-25.095-6.5C151.147,132.49,134.714,142.51,125.681,157.503"/>
		</defs>
		<clipPath id="SVGID_33_">
			<use xlink:href="#SVGID_32_"  overflow="visible"/>
		</clipPath>
		
			<linearGradient id="SVGID_34_" gradientUnits="userSpaceOnUse" x1="1906.5813" y1="-2375.511" x2="1908.5719" y2="-2375.511" gradientTransform="matrix(-31.6008 0 0 31.6008 60467.0742 75218.8203)">
			<stop  offset="0" style="stop-color:#785F63"/>
			<stop  offset="0.9978" style="stop-color:#2E1705"/>
			<stop  offset="1" style="stop-color:#2E1705"/>
		</linearGradient>
		<rect x="125.681" y="132.49" clip-path="url(#SVGID_33_)" fill="url(#SVGID_34_)" width="78.078" height="36.565"/>
	</g>
	<g>
		<defs>
			<path id="SVGID_35_" d="M10,127.338c0,45.466,36.968,82.318,82.556,82.318c45.592,0,82.561-36.852,82.561-82.318
				c0-45.469-36.97-82.332-82.561-82.332C46.968,45.006,10,81.869,10,127.338"/>
		</defs>
		<clipPath id="SVGID_36_">
			<use xlink:href="#SVGID_35_"  overflow="visible"/>
		</clipPath>
		
			<radialGradient id="SVGID_37_" cx="1816.9683" cy="-2525.7878" r="1.7874" gradientTransform="matrix(55.4158 0 0 -55.2607 -100596.1953 -139531.8438)" gradientUnits="userSpaceOnUse">
			<stop  offset="0" style="stop-color:#FED09E"/>
			<stop  offset="0.0807" style="stop-color:#FBB784"/>
			<stop  offset="0.2808" style="stop-color:#F47E4F"/>
			<stop  offset="0.4237" style="stop-color:#F15632"/>
			<stop  offset="0.4945" style="stop-color:#EF4429"/>
			<stop  offset="0.5985" style="stop-color:#E53E26"/>
			<stop  offset="0.7681" style="stop-color:#D22F21"/>
			<stop  offset="0.9811" style="stop-color:#B41418"/>
			<stop  offset="1" style="stop-color:#B11116"/>
		</radialGradient>
		<rect x="10" y="45.006" clip-path="url(#SVGID_36_)" fill="url(#SVGID_37_)" width="165.117" height="164.65"/>
	</g>
	<g>
		<defs>
			<path id="SVGID_38_" d="M75.388,146.915l-0.154-0.105C69.606,153.645,61.063,158,51.488,158
				c-16.971,0-30.735-13.727-30.735-30.663l0.03-0.036L10,127.338c0,45.466,36.968,82.318,82.556,82.318
				c14.912,0,28.891-3.953,40.979-10.854c0.094-0.046,0.205-0.082,0.301-0.143c0.842-0.494,1.65-0.982,2.466-1.491v-0.008
				c11.615-7.273,21.287-17.298,28.07-29.207l0.024,0.008c6.574-11.956,19.29-20.036,33.94-20.036c1.848,0,3.647,0.127,5.423,0.397
				c-3.064-3.867-6.465-7.438-10.164-10.697h0.018c-0.629-0.521-1.267-1.049-1.888-1.58c-0.011-0.01-0.019-0.017-0.03-0.044
				c-0.432-0.35-0.883-0.703-1.329-1.047c-0.203-0.15-0.395-0.332-0.593-0.492v0.01c-4.558-3.535-9.451-6.597-14.678-9.153
				c-0.04-0.018-0.084-0.029-0.118-0.048c-0.102-0.044-0.205-0.085-0.285-0.149c-0.119-0.048-0.235-0.104-0.346-0.144
				c-10.72-5.07-22.699-7.946-35.356-7.946C113.384,117.033,90.512,128.676,75.388,146.915"/>
		</defs>
		<clipPath id="SVGID_39_">
			<use xlink:href="#SVGID_38_"  overflow="visible"/>
		</clipPath>
		
			<radialGradient id="SVGID_40_" cx="1810.1702" cy="-2536.3652" r="1.7875" gradientTransform="matrix(45.9574 0 0 -45.8286 -83098.0313 -116028.5781)" gradientUnits="userSpaceOnUse">
			<stop  offset="0" style="stop-color:#FED09E"/>
			<stop  offset="0.0807" style="stop-color:#FBB784"/>
			<stop  offset="0.2808" style="stop-color:#F47E4F"/>
			<stop  offset="0.4237" style="stop-color:#F15632"/>
			<stop  offset="0.4945" style="stop-color:#EF4429"/>
			<stop  offset="0.5985" style="stop-color:#E53E26"/>
			<stop  offset="0.7681" style="stop-color:#D22F21"/>
			<stop  offset="0.9811" style="stop-color:#B41418"/>
			<stop  offset="1" style="stop-color:#B11116"/>
		</radialGradient>
		<rect x="10" y="117.033" clip-path="url(#SVGID_39_)" fill="url(#SVGID_40_)" width="193.759" height="92.622"/>
	</g>
	<g>
		<defs>
			<path id="SVGID_41_" d="M75.277,146.813c-0.026,0.036-0.044-0.004-0.044-0.004C69.584,153.645,60.875,158,51.309,158
				c-16.99,0-30.742-13.727-30.742-30.663l0.036-0.036h-0.45v0.036c0,31.254,25.403,56.597,56.739,56.597
				c20.502,0,38.886-10.579,48.855-26.834c9.075-14.75,25.385-24.61,44.028-24.61c8.08,0,15.711,1.841,22.524,5.163
				c0.238-0.028,0.466-0.028,0.686-0.028h0.444c-5.56-4.874-11.778-9.021-18.524-12.306c-0.03-0.018-0.066-0.029-0.116-0.048
				c-0.097-0.044-0.19-0.085-0.302-0.149c-0.095-0.048-0.213-0.104-0.327-0.144c-10.703-5.07-22.696-7.946-35.345-7.946
				C113.264,117.033,90.427,128.635,75.277,146.813"/>
		</defs>
		<clipPath id="SVGID_42_">
			<use xlink:href="#SVGID_41_"  overflow="visible"/>
		</clipPath>
		
			<radialGradient id="SVGID_43_" cx="1796.2144" cy="-2554.3721" r="1.7873" gradientTransform="matrix(34.0217 0 0 -33.9265 -61016.4727 -86535.2969)" gradientUnits="userSpaceOnUse">
			<stop  offset="0" style="stop-color:#FED09E"/>
			<stop  offset="0.0807" style="stop-color:#FBB784"/>
			<stop  offset="0.2808" style="stop-color:#F47E4F"/>
			<stop  offset="0.4237" style="stop-color:#F15632"/>
			<stop  offset="0.4945" style="stop-color:#EF4429"/>
			<stop  offset="0.5985" style="stop-color:#E53E26"/>
			<stop  offset="0.7681" style="stop-color:#D22F21"/>
			<stop  offset="0.9811" style="stop-color:#B41418"/>
			<stop  offset="1" style="stop-color:#B11116"/>
		</radialGradient>
		<rect x="20.153" y="117.033" clip-path="url(#SVGID_42_)" fill="url(#SVGID_43_)" width="173.276" height="66.901"/>
	</g>
	<g>
		<defs>
			<path id="SVGID_44_" d="M94.963,45.826c5.064,10.673,7.917,22.612,7.917,35.216c0,13.973-3.511,27.147-9.685,38.662
				c-0.026,0.036-0.026,0.074-0.06,0.104c-0.038,0.111-0.082,0.192-0.151,0.308h0.021c-0.289,0.633-0.448,1.328-0.448,2.076
				c0,2.839,2.307,5.145,5.164,5.145c0.742,0,1.443-0.163,2.099-0.439v0.025c0.092-0.067,0.199-0.112,0.289-0.156
				c0.034-0.041,0.066-0.058,0.11-0.072c11.557-6.145,24.75-9.662,38.771-9.662c12.644,0.032,24.601,2.844,35.316,7.916
				c3.812-7.831,5.974-16.615,5.974-25.909c0-32.684-26.57-59.165-59.34-59.176C111.63,39.876,102.808,42.022,94.963,45.826"/>
		</defs>
		<clipPath id="SVGID_45_">
			<use xlink:href="#SVGID_44_"  overflow="visible"/>
		</clipPath>
		
			<radialGradient id="SVGID_46_" cx="1814.0228" cy="-2529.9795" r="1.7883" gradientTransform="matrix(50.5282 0 0 -50.3868 -91538.4844 -127437.7656)" gradientUnits="userSpaceOnUse">
			<stop  offset="0" style="stop-color:#FED09E"/>
			<stop  offset="0.0807" style="stop-color:#FBB784"/>
			<stop  offset="0.2808" style="stop-color:#F47E4F"/>
			<stop  offset="0.4237" style="stop-color:#F15632"/>
			<stop  offset="0.4945" style="stop-color:#EF4429"/>
			<stop  offset="0.5985" style="stop-color:#E53E26"/>
			<stop  offset="0.7681" style="stop-color:#D22F21"/>
			<stop  offset="0.9811" style="stop-color:#B41418"/>
			<stop  offset="1" style="stop-color:#B11116"/>
		</radialGradient>
		<rect x="92.556" y="39.865" clip-path="url(#SVGID_45_)" fill="url(#SVGID_46_)" width="87.723" height="87.473"/>
	</g>
	<g>
		<defs>
			<path id="SVGID_47_" d="M96.653,45.042c-0.563,0.251-1.119,0.525-1.69,0.784c5.064,10.673,7.917,22.612,7.917,35.216
				c0,13.973-3.511,27.147-9.685,38.662c-0.026,0.036-0.026,0.074-0.06,0.104c-0.038,0.111-0.082,0.192-0.151,0.308h0.021
				c-0.289,0.633-0.448,1.328-0.448,2.076c0,1.238,0.448,2.383,1.185,3.284l25.44-40.455c2.733-4.087,4.328-8.999,4.328-14.272
				c0-14.211-11.542-25.726-25.789-25.744C97.369,45.006,97.002,45.029,96.653,45.042"/>
		</defs>
		<clipPath id="SVGID_48_">
			<use xlink:href="#SVGID_47_"  overflow="visible"/>
		</clipPath>
		
			<linearGradient id="SVGID_49_" gradientUnits="userSpaceOnUse" x1="1665.8156" y1="-2814.7397" x2="1667.8059" y2="-2814.7397" gradientTransform="matrix(10.0156 0 0 -10.0156 -16580.5957 -28106.0664)">
			<stop  offset="0" style="stop-color:#FFFFFF"/>
			<stop  offset="0.0429" style="stop-color:#FFFFFF"/>
			<stop  offset="1" style="stop-color:#D1D3D4"/>
		</linearGradient>
		<rect x="92.556" y="45.006" clip-path="url(#SVGID_48_)" fill="url(#SVGID_49_)" width="30.953" height="80.47"/>
	</g>
	<g>
		<defs>
			<path id="SVGID_50_" d="M135.01,100.796l-40.583,25.36c0.892,0.742,2.045,1.182,3.293,1.182c0.742,0,1.443-0.163,2.099-0.439
				v0.025c0.092-0.067,0.199-0.112,0.289-0.156c0.034-0.041,0.066-0.058,0.11-0.072c11.557-6.145,24.75-9.662,38.771-9.662
				c12.644,0.032,24.601,2.844,35.316,7.916c0.386,0.173,0.483,0.236,0.788,0.369v-2.074c0-0.346,0.023-0.696,0.023-1.053
				c0-14.192-11.535-25.716-25.803-25.716C144.011,96.477,139.103,98.055,135.01,100.796"/>
		</defs>
		<clipPath id="SVGID_51_">
			<use xlink:href="#SVGID_50_"  overflow="visible"/>
		</clipPath>
		
			<linearGradient id="SVGID_52_" gradientUnits="userSpaceOnUse" x1="1785.8127" y1="-2598.8904" x2="1787.8038" y2="-2598.8904" gradientTransform="matrix(28.6197 0 0 -28.6197 -50991.2891 -74267.5547)">
			<stop  offset="0" style="stop-color:#D1D3D4"/>
			<stop  offset="1" style="stop-color:#A7A9AC"/>
		</linearGradient>
		<rect x="94.427" y="96.477" clip-path="url(#SVGID_51_)" fill="url(#SVGID_52_)" width="80.69" height="30.861"/>
	</g>
	<g>
		<defs>
			<path id="SVGID_53_" d="M93.194,119.704c-0.026,0.036-0.026,0.074-0.06,0.104c-0.038,0.111-0.082,0.192-0.151,0.308h0.021
				c-0.289,0.633-0.448,1.328-0.448,2.076c0,2.839,2.307,5.145,5.164,5.145c0.742,0,1.443-0.163,2.099-0.439v0.025
				c0.092-0.067,0.199-0.112,0.289-0.156c0.034-0.041,0.066-0.058,0.11-0.072c2.341-1.259,4.801-2.387,7.257-3.408
				c-1.419-5.272-5.573-9.405-10.832-10.847C95.6,114.941,94.465,117.364,93.194,119.704"/>
		</defs>
		<clipPath id="SVGID_54_">
			<use xlink:href="#SVGID_53_"  overflow="visible"/>
		</clipPath>
		
			<linearGradient id="SVGID_55_" gradientUnits="userSpaceOnUse" x1="1974.3937" y1="-3607.6079" x2="1976.3842" y2="-3607.6079" gradientTransform="matrix(2.7585 1.9474 1.9474 -2.7585 1673.9918 -13680.2422)">
			<stop  offset="0" style="stop-color:#785F63"/>
			<stop  offset="0.9978" style="stop-color:#2E1705"/>
			<stop  offset="1" style="stop-color:#2E1705"/>
		</linearGradient>
		<polygon clip-path="url(#SVGID_54_)" fill="url(#SVGID_55_)" points="97.519,105.412 114.495,117.396 102.513,134.367 
			85.538,122.383 		"/>
	</g>
	<g>
		<path d="M110.887,80.263c4.188-6.186,3.553-14.644-1.953-20.132c-0.184-0.195-0.376-0.353-0.566-0.524
			C109.987,66.387,110.819,73.323,110.887,80.263"/>
		<path d="M139.748,109.038c6.197-4.166,14.696-3.527,20.186,1.954c0.197,0.177,0.372,0.368,0.53,0.571
			C153.673,109.934,146.713,109.099,139.748,109.038"/>
		<path fill="#785F63" d="M121.808,39.902c7.075,0,13.217,3.991,16.3,9.825c0.577-3.203,0.882-6.495,0.882-9.863
			c0-10.357-2.796-20.092-7.685-28.445L121.808,39.902z"/>
		<path fill="#2F1017" d="M180.277,81.043c-3.386,0-6.676,0.325-9.877,0.864c5.856,3.093,9.859,9.224,9.859,16.28l28.567-9.476
			C200.431,83.839,190.684,81.043,180.277,81.043"/>
	</g>
	<g>
		<defs>
			<path id="SVGID_56_" d="M170.4,81.909c3.267-0.577,6.427-0.866,9.88-0.866c10.39,0,20.139,2.8,28.502,7.673l0.266-0.095
				c-8.781-10.13-21.695-16.832-35.934-17.753C171.487,74.291,170.853,78.005,170.4,81.909"/>
		</defs>
		<clipPath id="SVGID_57_">
			<use xlink:href="#SVGID_56_"  overflow="visible"/>
		</clipPath>
		
			<linearGradient id="SVGID_58_" gradientUnits="userSpaceOnUse" x1="1756.7284" y1="-2653.4775" x2="1758.719" y2="-2653.4775" gradientTransform="matrix(19.415 0 0 -19.415 -33936.4805 -51437.4766)">
			<stop  offset="0" style="stop-color:#785F63"/>
			<stop  offset="0.9978" style="stop-color:#2E1705"/>
			<stop  offset="1" style="stop-color:#2E1705"/>
		</linearGradient>
		<rect x="170.4" y="70.867" clip-path="url(#SVGID_57_)" fill="url(#SVGID_58_)" width="38.648" height="17.849"/>
	</g>
	<g>
		<defs>
			<path id="SVGID_59_" d="M131.303,11.441c4.878,8.353,7.687,18.082,7.687,28.423c0,3.442-0.287,6.614-0.882,9.863
				c3.921-0.454,7.655-1.101,11.089-2.71c-0.931-14.212-7.645-27.093-17.813-35.819L131.303,11.441z"/>
		</defs>
		<clipPath id="SVGID_60_">
			<use xlink:href="#SVGID_59_"  overflow="visible"/>
		</clipPath>
		
			<linearGradient id="SVGID_61_" gradientUnits="userSpaceOnUse" x1="2025.2996" y1="-2579.1709" x2="2027.2899" y2="-2579.1709" gradientTransform="matrix(0 18.7975 18.7975 0 48622.2148 -38059.1484)">
			<stop  offset="0" style="stop-color:#785F63"/>
			<stop  offset="0.9978" style="stop-color:#2E1705"/>
			<stop  offset="1" style="stop-color:#2E1705"/>
		</linearGradient>
		<rect x="131.303" y="11.199" clip-path="url(#SVGID_60_)" fill="url(#SVGID_61_)" width="17.894" height="38.529"/>
	</g>
	<g>
		<defs>
			<path id="SVGID_62_" d="M100.62,126.53c8.452-3.933,17.875-6.139,27.816-6.139c9.03,0,17.632,1.801,25.486,5.096
				c-14.485,5.469-25.562,17.853-29.203,33.104c4.264-4.851,9.497-8.798,15.425-11.546c6.67-3.239,14.122-5.066,22.013-5.066
				c3.18,0,6.27,0.332,9.279,0.874c-4.795,7.616-7.623,16.568-7.713,26.201c0.229-0.368,0.436-0.726,0.649-1.102l0.024,0.008
				c6.574-11.956,19.29-20.036,33.94-20.036c1.848,0,3.647,0.127,5.423,0.397c-3.064-3.867-6.465-7.438-10.164-10.697h0.018
				c-0.629-0.521-1.267-1.049-1.888-1.58c-0.011-0.01-0.019-0.017-0.03-0.044c-0.432-0.35-0.883-0.703-1.329-1.047
				c-0.203-0.15-0.395-0.332-0.593-0.492c-4.558-3.525-9.451-6.587-14.678-9.143c-0.04-0.018-0.084-0.029-0.118-0.048
				c-0.102-0.044-0.205-0.085-0.285-0.149c-0.119-0.048-0.235-0.104-0.346-0.144c-2.146-1.015-4.334-1.949-6.581-2.774
				c-8.957-3.319-18.653-5.172-28.775-5.172C125.135,117.033,112.089,120.492,100.62,126.53"/>
		</defs>
		<clipPath id="SVGID_63_">
			<use xlink:href="#SVGID_62_"  overflow="visible"/>
		</clipPath>
		
			<linearGradient id="SVGID_64_" gradientUnits="userSpaceOnUse" x1="1815.8051" y1="-2544.2654" x2="1817.7954" y2="-2544.2654" gradientTransform="matrix(53.9808 0 0 -53.9808 -97917.9922 -137198.4375)">
			<stop  offset="0" style="stop-color:#785F63"/>
			<stop  offset="0.9978" style="stop-color:#2E1705"/>
			<stop  offset="1" style="stop-color:#2E1705"/>
		</linearGradient>
		<rect x="100.62" y="117.033" clip-path="url(#SVGID_63_)" fill="url(#SVGID_64_)" width="103.139" height="52.022"/>
	</g>
	<g>
		<defs>
			<path id="SVGID_65_" d="M125.681,157.503c4.043-4.322,8.892-7.833,14.321-10.367c6.687-3.287,14.195-5.156,22.155-5.156
				c3.18,0,6.27,0.332,9.279,0.874c-4.795,7.616-7.623,16.568-7.713,26.201c0.229-0.368,0.436-0.726,0.649-1.102l0.024,0.008
				c6.574-11.956,19.29-20.036,33.94-20.036c1.848,0,3.647,0.127,5.423,0.397c-2.655-3.338-5.588-6.471-8.709-9.332
				c-7.427-4.142-15.99-6.5-25.095-6.5C151.147,132.49,134.714,142.51,125.681,157.503"/>
		</defs>
		<clipPath id="SVGID_66_">
			<use xlink:href="#SVGID_65_"  overflow="visible"/>
		</clipPath>
		
			<linearGradient id="SVGID_67_" gradientUnits="userSpaceOnUse" x1="1906.5813" y1="-2375.511" x2="1908.5719" y2="-2375.511" gradientTransform="matrix(-31.6008 0 0 31.6008 60467.0742 75218.8203)">
			<stop  offset="0" style="stop-color:#785F63"/>
			<stop  offset="0.9978" style="stop-color:#2E1705"/>
			<stop  offset="1" style="stop-color:#2E1705"/>
		</linearGradient>
		<rect x="125.681" y="132.49" clip-path="url(#SVGID_66_)" fill="url(#SVGID_67_)" width="78.078" height="36.565"/>
	</g>
</g>
</svg>
