<?xml version="1.0" encoding="utf-8"?>
<!-- Generator: Adobe Illustrator 21.0.2, SVG Export Plug-In . SVG Version: 6.00 Build 0)  -->
<svg version="1.1" id="radcor" xmlns="http://www.w3.org/2000/svg" xmlns:xlink="http://www.w3.org/1999/xlink" x="0px" y="0px"
	 viewBox="0 0 37.8181801 27.9049244" style="enable-background:new 0 0 37.8181801 27.9049244;" xml:space="preserve">
<style type="text/css">
	.st0{fill:none;stroke:#FF3C11;stroke-width:1.6363636;stroke-miterlimit:10;}
	.st1{fill:none;stroke:#FF3C11;stroke-width:1.854385;stroke-linecap:round;stroke-linejoin:round;stroke-miterlimit:10;}
	.st2{fill:#FF3C11;}
</style>
<circle class="st0" cx="5.318182" cy="22.0676517" r="4.5"/>
<path class="st1" d="M11.818182,25.5676517c6.2800007,2.3099995,15.7800007,1.8800011,16-2.0200005
	c0.1900005-3.5-3.3999996-7.7599993-9.2199993-10.829999C12.7681818,9.6476517,8.8862429,8.4995909,5.818182,11.5676517
	c-1,1-2.6900001,2.79-3.0000002,4"/>
<path class="st1" d="M23.818182,15.5676517c-0.252327-2.130621-0.9300156-4.9016533-3-6
	c-1.860878-0.9873924-3.4733429,0.1058712-5-1c-1.9800873-1.4343224-2.5348816-5.6402073-1-7
	c2.7120209-2.4026461,14.1775703,2.105051,17.9999981,11c2.6023102,6.0556831,0.7356339,11.9888306,0,14"/>
<path class="st2" d="M36.8181839,27.5676517h-7.0000038c-0.5522842,0-0.9999981-0.4477139-0.9999981-0.9999981v-0.0000019
	c0-0.5522842,0.4477139-1,0.9999981-1h7.0000038c0.5522842,0,0.9999962,0.4477158,0.9999962,1v0.0000019
	C37.8181801,27.1199379,37.3704681,27.5676517,36.8181839,27.5676517z"/>
</svg>
