<svg width="18" height="18" viewBox="0 0 18 18" fill="none" xmlns="http://www.w3.org/2000/svg">
<path d="M9 18C4.05 18 0 13.95 0 9C0 4.05 4.05 0 9 0C13.95 0 18 4.05 18 9C18 13.95 13.95 18 9 18ZM9 1.5C4.875 1.5 1.5 4.875 1.5 9C1.5 13.125 4.875 16.5 9 16.5C13.125 16.5 16.5 13.125 16.5 9C16.5 4.875 13.125 1.5 9 1.5Z" fill="#EF4123"/>
<mask id="path-2-inside-1" fill="white">
<path fill-rule="evenodd" clip-rule="evenodd" d="M1.54966 0C0.693898 0 0 0.694014 0 1.54991C0 2.4058 0.693898 3.09981 1.54966 3.09981C2.40576 3.09981 3.09966 2.4058 3.09966 1.54991C3.09966 0.694014 2.40542 0 1.54966 0ZM1.54966 2.31552C1.07397 2.31552 0.7693 2.02556 0.7693 1.54991C0.7693 1.07426 1.07431 0.760042 1.54966 0.760042C2.02535 0.760042 2.32601 1.07426 2.32601 1.54991C2.32601 2.02556 2.02501 2.31552 1.54966 2.31552Z"/>
</mask>
<path fill-rule="evenodd" clip-rule="evenodd" d="M1.54966 0C0.693898 0 0 0.694014 0 1.54991C0 2.4058 0.693898 3.09981 1.54966 3.09981C2.40576 3.09981 3.09966 2.4058 3.09966 1.54991C3.09966 0.694014 2.40542 0 1.54966 0ZM1.54966 2.31552C1.07397 2.31552 0.7693 2.02556 0.7693 1.54991C0.7693 1.07426 1.07431 0.760042 1.54966 0.760042C2.02535 0.760042 2.32601 1.07426 2.32601 1.54991C2.32601 2.02556 2.02501 2.31552 1.54966 2.31552Z" transform="translate(5.28442 5.25058)" fill="#EF4123"/>
<path d="M1.54966 -1C0.14146 -1 -1 0.141881 -1 1.54991H1C1 1.24615 1.24634 1 1.54966 1V-1ZM-1 1.54991C-1 2.95793 0.14146 4.09981 1.54966 4.09981V2.09981C1.24634 2.09981 1 1.85367 1 1.54991H-1ZM1.54966 4.09981C2.95806 4.09981 4.09966 2.95807 4.09966 1.54991H2.09966C2.09966 1.85352 1.85347 2.09981 1.54966 2.09981V4.09981ZM4.09966 1.54991C4.09966 0.141594 2.95757 -1 1.54966 -1V1C1.85327 1 2.09966 1.24643 2.09966 1.54991H4.09966ZM1.54966 1.31552C1.51514 1.31552 1.59006 1.30836 1.67841 1.39431C1.71912 1.43392 1.74472 1.47733 1.7583 1.51283C1.77121 1.54658 1.7693 1.56228 1.7693 1.54991H-0.2307C-0.2307 2.00633 -0.0793309 2.47459 0.283785 2.82785C0.643389 3.17769 1.10849 3.31552 1.54966 3.31552V1.31552ZM1.7693 1.54991C1.7693 1.52856 1.77231 1.59834 1.69435 1.67764C1.65883 1.71377 1.62003 1.73683 1.58772 1.74932C1.5566 1.76134 1.54109 1.76004 1.54966 1.76004V-0.239958C1.08585 -0.239958 0.619336 -0.081722 0.268101 0.275567C-0.081199 0.630888 -0.2307 1.0956 -0.2307 1.54991H1.7693ZM1.54966 1.76004C1.5584 1.76004 1.54218 1.76137 1.50993 1.74886C1.47639 1.73585 1.43654 1.71194 1.40039 1.67488C1.32158 1.59409 1.32601 1.52455 1.32601 1.54991H3.32601C3.32601 1.09961 3.1801 0.635141 2.83205 0.278331C2.48112 -0.0814172 2.01393 -0.239958 1.54966 -0.239958V1.76004ZM1.32601 1.54991C1.32601 1.56368 1.32387 1.54899 1.33643 1.51586C1.34967 1.48091 1.37505 1.43715 1.41623 1.39679C1.5061 1.30874 1.58352 1.31552 1.54966 1.31552V3.31552C1.99115 3.31552 2.45673 3.17731 2.81594 2.82537C3.17779 2.47083 3.32601 2.00283 3.32601 1.54991H1.32601Z" transform="translate(5.28442 5.25058)" fill="#EF4123" mask="url(#path-2-inside-1)"/>
<mask id="path-4-inside-2" fill="white">
<path fill-rule="evenodd" clip-rule="evenodd" d="M1.54966 0C0.693898 0 0 0.694014 0 1.54991C0 2.4058 0.693898 3.09981 1.54966 3.09981C2.40576 3.09981 3.09966 2.4058 3.09966 1.54991C3.09966 0.694014 2.40542 0 1.54966 0ZM1.54966 2.31552C1.07397 2.31552 0.7693 2.02556 0.7693 1.54991C0.7693 1.07426 1.07431 0.760042 1.54966 0.760042C2.02535 0.760042 2.32601 1.07426 2.32601 1.54991C2.32601 2.02556 2.02501 2.31552 1.54966 2.31552Z"/>
</mask>
<path fill-rule="evenodd" clip-rule="evenodd" d="M1.54966 0C0.693898 0 0 0.694014 0 1.54991C0 2.4058 0.693898 3.09981 1.54966 3.09981C2.40576 3.09981 3.09966 2.4058 3.09966 1.54991C3.09966 0.694014 2.40542 0 1.54966 0ZM1.54966 2.31552C1.07397 2.31552 0.7693 2.02556 0.7693 1.54991C0.7693 1.07426 1.07431 0.760042 1.54966 0.760042C2.02535 0.760042 2.32601 1.07426 2.32601 1.54991C2.32601 2.02556 2.02501 2.31552 1.54966 2.31552Z" transform="translate(9.54565 8.8295)" fill="#EF4123"/>
<path d="M1.54966 -1C0.14146 -1 -1 0.141881 -1 1.54991H1C1 1.24615 1.24634 1 1.54966 1V-1ZM-1 1.54991C-1 2.95793 0.14146 4.09981 1.54966 4.09981V2.09981C1.24634 2.09981 1 1.85367 1 1.54991H-1ZM1.54966 4.09981C2.95806 4.09981 4.09966 2.95807 4.09966 1.54991H2.09966C2.09966 1.85352 1.85347 2.09981 1.54966 2.09981V4.09981ZM4.09966 1.54991C4.09966 0.141594 2.95757 -1 1.54966 -1V1C1.85327 1 2.09966 1.24643 2.09966 1.54991H4.09966ZM1.54966 1.31552C1.51514 1.31552 1.59006 1.30836 1.67841 1.39431C1.71912 1.43392 1.74472 1.47733 1.7583 1.51283C1.77121 1.54658 1.7693 1.56228 1.7693 1.54991H-0.2307C-0.2307 2.00633 -0.0793309 2.47459 0.283785 2.82785C0.643389 3.17769 1.10849 3.31552 1.54966 3.31552V1.31552ZM1.7693 1.54991C1.7693 1.52856 1.77231 1.59834 1.69435 1.67764C1.65883 1.71377 1.62003 1.73683 1.58772 1.74932C1.5566 1.76134 1.54109 1.76004 1.54966 1.76004V-0.239958C1.08585 -0.239958 0.619336 -0.081722 0.268101 0.275567C-0.081199 0.630888 -0.2307 1.0956 -0.2307 1.54991H1.7693ZM1.54966 1.76004C1.5584 1.76004 1.54218 1.76137 1.50993 1.74886C1.47639 1.73585 1.43654 1.71194 1.40039 1.67488C1.32158 1.59409 1.32601 1.52455 1.32601 1.54991H3.32601C3.32601 1.09961 3.1801 0.635141 2.83205 0.278331C2.48112 -0.0814172 2.01393 -0.239958 1.54966 -0.239958V1.76004ZM1.32601 1.54991C1.32601 1.56368 1.32387 1.54899 1.33643 1.51586C1.34967 1.48091 1.37505 1.43715 1.41623 1.39679C1.5061 1.30874 1.58352 1.31552 1.54966 1.31552V3.31552C1.99115 3.31552 2.45673 3.17731 2.81594 2.82537C3.17779 2.47083 3.32601 2.00283 3.32601 1.54991H1.32601Z" transform="translate(9.54565 8.8295)" fill="#EF4123" mask="url(#path-4-inside-2)"/>
<path d="M8.51345 0H0.49529C0.221749 0 0 0.221749 0 0.49529C0 0.768832 0.221749 0.990581 0.49529 0.990581H8.51345C8.78699 0.990581 9.00874 0.768832 9.00874 0.49529C9.00874 0.221749 8.78699 0 8.51345 0Z" transform="translate(5.25 11.5735) rotate(-44.5819)" fill="#EF4123"/>
</svg>
