<svg width="22" height="22" viewBox="0 0 22 22" fill="none" xmlns="http://www.w3.org/2000/svg">
<path d="M16.0197 11.8365C15.7843 11.6016 15.4653 11.4697 15.1327 11.4697C14.8002 11.4697 14.4812 11.6016 14.2458 11.8365L13.7131 12.3693L13.1803 12.902C13.0193 13.0627 12.9054 13.2645 12.8509 13.4853C12.8015 13.6849 12.8015 13.8935 12.8509 14.0931C12.8543 14.1065 12.8542 14.1205 12.8506 14.1339C12.847 14.1472 12.84 14.1594 12.8303 14.1692L12.6637 14.3359L12.4626 14.537C12.3198 14.6797 11.8037 14.6414 11.0554 14.2992C10.3071 13.957 9.32489 13.3098 8.24992 12.2354C7.17496 11.161 6.52776 10.18 6.18611 9.43056C5.84445 8.68115 5.80501 8.16562 5.94778 8.02285L6.14889 7.82175L6.31555 7.65509C6.32546 7.64534 6.33774 7.63832 6.35117 7.63472C6.36461 7.63111 6.37874 7.63105 6.39221 7.63454C6.43453 7.64506 6.47736 7.65341 6.52054 7.65953C6.71304 7.68707 6.90931 7.66938 7.09378 7.60786C7.27825 7.54634 7.44585 7.44268 7.58328 7.30511L8.11604 6.77236L8.6488 6.23961C8.88359 6.00416 9.01543 5.68521 9.01543 5.35271C9.01543 5.0202 8.88359 4.70126 8.6488 4.46581L6.59998 2.41702L4.55116 0.368241C4.43483 0.25152 4.29661 0.158909 4.14441 0.0957187C3.99222 0.0325279 3.82904 0 3.66425 0C3.49946 0 3.33628 0.0325279 3.18409 0.0957187C3.03189 0.158909 2.89367 0.25152 2.77734 0.368241L2.24458 0.900991L1.71182 1.43374C1.55053 1.5949 1.43658 1.79724 1.38238 2.01871C1.33299 2.21828 1.33299 2.42689 1.38238 2.62646C1.3855 2.63964 1.3852 2.65339 1.3815 2.66642C1.37781 2.67945 1.37085 2.69132 1.36127 2.7009L1.22072 2.84367C1.1335 2.93255 1.04406 3.02366 1.03573 3.03477C0.472415 3.66474 0.133538 4.47581 0.0324299 5.4252C-0.0686777 6.3746 0.0663176 7.46399 0.44186 8.64726C0.809625 9.80831 1.39016 11.0038 2.1468 12.1771C2.94512 13.4035 3.87099 14.542 4.90893 15.5736C5.94042 16.6123 7.07894 17.5389 8.30548 18.3379C9.47877 19.0945 10.6743 19.675 11.8354 20.0428C12.2776 20.185 12.7293 20.2964 13.187 20.3761C13.5985 20.4479 14.0153 20.4851 14.433 20.4872C15.0383 20.4952 15.6402 20.3957 16.2108 20.1933C16.7302 20.0055 17.2024 19.7063 17.594 19.3167L17.7052 19.2056L17.7846 19.1262C17.7945 19.1164 17.8068 19.1094 17.8202 19.1058C17.8337 19.1022 17.8478 19.1021 17.8613 19.1056C17.903 19.1161 17.9453 19.1244 17.9879 19.1306C18.1806 19.1586 18.3772 19.1411 18.5619 19.0796C18.7466 19.018 18.9144 18.9141 19.0518 18.7762L19.5829 18.2401L20.1156 17.7074C20.3504 17.4719 20.4823 17.153 20.4823 16.8205C20.4823 16.4879 20.3504 16.169 20.1156 15.9336L18.0668 13.8848L16.0197 11.8365ZM3.60786 1.31208C3.62278 1.29769 3.64269 1.28965 3.66342 1.28965C3.68414 1.28965 3.70406 1.29769 3.71897 1.31208L5.71112 3.3042L7.7055 5.29632C7.71989 5.31123 7.72793 5.33115 7.72793 5.35187C7.72793 5.3726 7.71989 5.39252 7.7055 5.40743L7.2294 5.88407L6.69442 6.41849L6.68665 6.41071L6.67887 6.40293L5.66224 5.38632L4.6456 4.3697L3.62342 3.34531L2.65567 2.37758C2.64128 2.36267 2.63324 2.34275 2.63324 2.32203C2.63324 2.30131 2.64128 2.28139 2.65567 2.26648L3.13177 1.79039L3.60786 1.31208ZM16.7057 18.4279C16.2546 18.879 15.6302 19.1417 14.8697 19.2128C14.1092 19.2839 13.212 19.1634 12.2148 18.8473C11.1476 18.509 10.0443 17.9707 8.95712 17.2668C7.81636 16.5205 6.75692 15.6568 5.79612 14.6897C4.82906 13.729 3.9653 12.6695 3.21899 11.5288C2.51457 10.4416 1.97625 9.33778 1.63904 8.27117C1.32294 7.27455 1.20239 6.37738 1.2735 5.61631C1.34461 4.85523 1.60682 4.23138 2.05847 3.77973L2.11402 3.72418C2.12894 3.70979 2.14885 3.70175 2.16958 3.70175C2.1903 3.70175 2.21022 3.70979 2.22513 3.72418L3.75841 5.25744L5.29169 6.79069C5.30609 6.8056 5.31413 6.82552 5.31413 6.84624C5.31413 6.86697 5.30609 6.88688 5.29169 6.90179L5.20225 6.99123L5.0567 7.13678C4.45283 7.74175 4.51339 8.72337 4.98282 9.81109C5.45224 10.8988 6.32999 12.0932 7.3594 13.1226C8.12993 13.8931 8.99268 14.5786 9.83431 15.0714C10.676 15.5641 11.4959 15.8647 12.1809 15.8647C12.3992 15.8674 12.6162 15.8315 12.822 15.7586C13.0189 15.6871 13.1977 15.5733 13.3459 15.4252L13.4914 15.2797L13.5803 15.1908C13.5952 15.1764 13.6151 15.1684 13.6358 15.1684C13.6566 15.1684 13.6765 15.1764 13.6914 15.1908L15.2247 16.7241L16.758 18.2573C16.7724 18.2722 16.7804 18.2922 16.7804 18.3129C16.7804 18.3336 16.7724 18.3535 16.758 18.3684L16.7057 18.4279ZM18.2212 17.8307C18.2064 17.8452 18.1865 17.8533 18.1657 17.8533C18.1449 17.8533 18.125 17.8452 18.1101 17.8307L16.118 15.8386L14.1258 13.8464C14.1114 13.8315 14.1034 13.8116 14.1034 13.7909C14.1034 13.7702 14.1114 13.7502 14.1258 13.7353L14.6019 13.2592L15.078 12.7832C15.0929 12.7688 15.1129 12.7607 15.1336 12.7607C15.1543 12.7607 15.1742 12.7688 15.1891 12.7832L17.1813 14.7753L19.1734 16.7674C19.188 16.7822 19.1961 16.8022 19.1961 16.823C19.1961 16.8437 19.188 16.8637 19.1734 16.8785L18.6973 17.3513L18.2212 17.8307Z" transform="translate(1.04431 0.470078)" fill="#EF4123" stroke="#EF4123" stroke-width="0.75" stroke-miterlimit="10"/>
</svg>
